# xmcd CD database file
#
# Track frame offsets:
#	150
#	33313
#	72845
#	103196
#	134494
#	171647
#	197084
#
# Disc length: 3005 seconds
#
# Revision: 11
# Processed by: cddbd v1.5.2PL0 Copyright (c) Steve Scherf et al.
# Submitted via: CDex 1.50beta10
#
DISCID=680bbb07
DTITLE=Dexter Gordon - Our Man In Paris
DYEAR=1963
DGENRE=Jazz
TTITLE0=Scrapple From The Apple
TTITLE1=Willow Weep For Me
TTITLE2=Broadway
TTITLE3=Stairway To The Stars
TTITLE4=A Night In Tunisia
TTITLE5=Our Love Is Here To Stay
TTITLE6=Like Someone In Love
EXTD=YEAR: 1963
EXTT0=
EXTT1=
EXTT2=
EXTT3=
EXTT4=
EXTT5=
EXTT6=
PLAYORDER=
